<?xml version="1.0" standalone="no"?><!DOCTYPE svg PUBLIC "-//W3C//DTD SVG 1.1//EN" "http://www.w3.org/Graphics/SVG/1.1/DTD/svg11.dtd"><svg t="1706174331686" class="icon" viewBox="0 0 1062 1024" version="1.1" xmlns="http://www.w3.org/2000/svg" p-id="4257" xmlns:xlink="http://www.w3.org/1999/xlink" width="207.421875" height="200"><path d="M350.063276 771.220436a126.387969 126.387969 0 1 0 126.34768 126.387969 126.34768 126.34768 0 0 0-126.34768-126.387969z m0 206.201347a79.813378 79.813378 0 1 1 79.813378-79.813378 79.813378 79.813378 0 0 1-79.813378 79.813378z" fill="#0e53ad" p-id="4258"></path><path d="M1057.54582 249.915388a23.609611 23.609611 0 0 0-18.613721-9.30686h-199.916195a184.928524 184.928524 0 0 1-9.991781 46.292565h178.72395l-100.320702 332.105843a69.418703 69.418703 0 0 1-66.799889 49.55601H352.883537a69.66044 69.66044 0 0 1-68.492046-57.694476l-57.251292-323.927088h111.319719a28.202607 28.202607 0 0 1-1.168394-4.028943l-5.600232-42.102464H218.598838l-16.760407-93.552077a139.361168 139.361168 0 0 0-113.092454-112.810428L27.989503 23.488743a23.287296 23.287296 0 1 0-8.057888 45.849381l60.957921 10.716991a92.665709 92.665709 0 0 1 75.180093 75.180092L238.139215 619.248673a115.630689 115.630689 0 0 0 114.260849 95.888864h488.02597a115.832136 115.832136 0 0 0 111.239141-82.391902l109.144089-361.879739a23.891637 23.891637 0 0 0-3.263444-20.950508z" fill="#0e53ad" p-id="4259"></path><path d="M838.129536 771.220436a126.387969 126.387969 0 1 0 126.34768 126.387969 126.34768 126.34768 0 0 0-126.34768-126.387969z m0 206.201347a79.813378 79.813378 0 1 1 79.813379-79.813378 79.813378 79.813378 0 0 1-79.813379 79.813378z" fill="#0e53ad" p-id="4260"></path><path d="M564.161353 351.646221h46.534302v-114.019112h114.019112V191.052518h-114.019112v-114.019111h-46.534302v114.019111h-114.019111v46.534302h114.019111z" fill="#0e53ad" p-id="4261"></path><path d="M587.448649 428.679628a214.339814 214.339814 0 1 0-214.339814-214.339814 214.541261 214.541261 0 0 0 214.339814 214.339814z m0-382.346773A167.92638 167.92638 0 1 1 419.643137 214.339814a168.006959 168.006959 0 0 1 167.805512-168.047249z" fill="#0e53ad" p-id="4262"></path></svg>