<?xml version="1.0" standalone="no"?><!DOCTYPE svg PUBLIC "-//W3C//DTD SVG 1.1//EN" "http://www.w3.org/Graphics/SVG/1.1/DTD/svg11.dtd"><svg t="1706078103255" class="icon" viewBox="0 0 1113 1024" version="1.1" xmlns="http://www.w3.org/2000/svg" p-id="6717" xmlns:xlink="http://www.w3.org/1999/xlink" width="217.3828125" height="200"><path d="M556.500682 1023.975632h-7.310514a20.396334 20.396334 0 0 1-18.544337-11.13635L100.178408 582.420596a341.327891 341.327891 0 0 1 241.246957-582.404269 326.877442 326.877442 0 0 1 215.17279 77.978814 340.572471 340.572471 0 0 1 456.249169 504.425455L582.404269 1012.863651a33.6771 33.6771 0 0 1-25.903587 11.111981z m-215.172791-949.75759a279.84647 279.84647 0 0 0-189.220466 77.978815 268.71012 268.71012 0 0 0 0 378.416564l404.515099 404.515099 404.515099-404.515099A267.711017 267.711017 0 0 0 582.404269 152.123751a35.797149 35.797149 0 0 1-51.929017 0 279.84647 279.84647 0 0 0-189.147361-77.905709z" fill="#ffffff" p-id="6718"></path></svg>